<?xml version="1.0" standalone="no"?>
<!DOCTYPE svg PUBLIC "-//W3C//DTD SVG 1.1//EN" "http://www.w3.org/Graphics/SVG/1.1/DTD/svg11.dtd" >
<!--
2013-9-30: Created.
-->
<svg>
<metadata>
Created by iconfont
</metadata>
<defs>

<font id="iconfont" horiz-adv-x="1024" >
  <font-face
    font-family="iconfont"
    font-weight="500"
    font-stretch="normal"
    units-per-em="1024"
    ascent="896"
    descent="-128"
  />
    <missing-glyph />
    
    <glyph glyph-name="shouqi" unicode="&#59061;" d="M917.36409 896L22.076859 0.72971a75.386546 75.386546 0 0 1 106.625376-106.608434l788.661855 788.661855L1705.992064-105.878724a75.386546 75.386546 0 0 1 106.72702 106.608434z"  horiz-adv-x="1834" />

    
    <glyph glyph-name="bangzhu1" unicode="&#58907;" d="M512-128C229.236-128 0 101.236 0 384S229.236 896 512 896s512-229.236 512-512-229.236-512-512-512z m0 68.236c245.015 0 443.764 198.61 443.764 443.764S757.015 827.764 512 827.764C266.985 827.764 68.236 629.015 68.236 384c0-245.015 198.749-443.764 443.764-443.764zM525.265 634.275c46.639 0 84.434-12.335 113.571-38.633 29.184-25.46 43.66-60.462 43.66-104.122 0-35.654-9.449-65.443-27.648-88.762-6.516-8.006-26.996-26.997-61.114-56.786-13.87-11.683-24.018-24.808-30.627-37.841-8.006-14.522-11.636-30.627-11.636-48.128v-12.335h-77.964v12.335c0 26.996 4.329 50.269 14.476 69.12 9.495 20.34 37.143 50.269 82.292 90.298l12.334 13.824c13.173 16.803 20.34 34.164 20.34 53.155 0 25.507-7.307 45.15-21.13 59.671-14.523 14.522-35.655 21.83-61.906 21.83-32.815 0-56.786-10.193-71.354-31.325-13.126-17.501-19.643-42.31-19.643-74.287h-76.474c0 53.155 15.36 94.627 45.847 125.254 30.86 31.418 73.123 46.732 126.976 46.732z m-13.032-425.938c15.313 0 28.346-4.328 38.632-14.522 10.147-9.495 15.314-21.83 15.314-37.143 0-15.313-5.818-27.648-16.012-37.795a54.458 54.458 0 0 0-37.841-14.522c-14.476 0-27.648 5.12-37.795 15.313a50.735 50.735 0 0 0-15.36 37.144c0 15.313 5.166 27.648 15.36 37.143 9.914 10.054 23.086 14.429 37.702 14.429z"  horiz-adv-x="1024" />

    
    <glyph glyph-name="tiaocha" unicode="&#59018;" d="M870.4-128H153.6c-56.576 0-102.4 45.824-102.4 102.4V691.2c0 56.576 45.824 102.4 102.4 102.4h51.2v-102.4c-28.262 0-51.2-22.938-51.2-51.2v-614.4c0-28.262 22.938-51.2 51.2-51.2h614.4c28.262 0 51.2 22.938 51.2 51.2V640c0 28.262-22.938 51.2-51.2 51.2V793.6h51.2c56.576 0 102.4-45.824 102.4-102.4v-716.8c0-56.576-45.824-102.4-102.4-102.4zM537.6 193.382c-19.866-19.2-52.07-19.2-71.885 0L321.895 332.39c-19.866 19.2-19.866 50.279 0 69.479 19.814 19.2 52.019 19.2 71.884 0l107.879-104.243L681.42 471.398c19.865 19.15 52.07 19.15 71.885 0 19.865-19.2 19.865-50.33 0-69.53L537.6 193.383z m128 497.818H358.4c-28.262 0-51.2 22.938-51.2 51.2 0 28.262 22.938 51.2 51.2 51.2h51.2C409.6 850.176 455.424 896 512 896c56.576 0 102.4-45.824 102.4-102.4h51.2c28.262 0 51.2-22.938 51.2-51.2 0-28.262-22.938-51.2-51.2-51.2z"  horiz-adv-x="1024" />

    
    <glyph glyph-name="jianding" unicode="&#59026;" d="M422.0416 759.1936c171.9296 17.7152 332.032-88.576 379.4432-248.1152 5.9392-23.6032-5.888-35.4304-17.7664-41.3184-11.8784 0-29.6448 5.888-35.584 23.6032-41.472 141.7728-177.8688 230.4-326.0928 206.7456-29.6448-5.888-35.584 53.1456 0 59.0848z m420.9664-661.504c-5.9392 5.8368 0 23.552 5.9392 29.4912 65.1776 82.688 100.7616 183.0912 100.7616 295.3216C949.76 682.3936 736.256 894.976 475.392 894.976S1.0752 682.3936 1.0752 422.4c0-259.84 213.504-472.4736 474.3168-472.4736 112.64 0 213.504 35.4304 290.5088 94.5152 11.8784 11.776 23.7568 17.7152 35.584 5.888l166.0416-171.264c11.8272-11.8272 35.5328-5.9392 47.4112 5.888a28.4672 28.4672 0 0 1 0 41.3696l-171.9296 171.264z m-367.616-94.5664c-231.2192 0-415.0272 189.0304-415.0272 419.328 0 230.4 183.808 413.4912 415.0272 413.4912 231.2704 0 420.9664-183.0912 420.9664-413.44 0-230.4-189.696-419.328-420.9664-419.328z"  horiz-adv-x="1024" />

    
    <glyph glyph-name="xiazai" unicode="&#59064;" d="M477.575529 132.256627a40.156863 40.156863 0 0 1 56.791844 0l207.289725 207.289726a40.156863 40.156863 0 0 1-56.791843 56.781804L550.14902 261.611922V855.843137a40.156863 40.156863 0 0 1-80.313726 0v-602.262588L327.087686 396.328157a40.156863 40.156863 0 0 1-56.791843-56.781804zM833.807059 213.333333a40.156863 40.156863 0 0 1-40.156863-40.156862v-220.862746H230.349804V173.176471a40.156863 40.156863 0 0 1-80.313726 0v-261.019608a40.156863 40.156863 0 0 1 40.156863-40.156863h643.614118a40.156863 40.156863 0 0 1 40.156863 40.156863V173.176471a40.156863 40.156863 0 0 1-40.156863 40.156862z"  horiz-adv-x="1024" />

    
    <glyph glyph-name="shangyi" unicode="&#59069;" d="M941.530143 482.2603l-402.554299 402.554298a38.052396 38.052396 0 0 1-53.814099 0l-402.554298-402.554298A38.052396 38.052396 0 0 1 136.421546 428.4462l336.00266 336.132839v-854.526643a38.052396 38.052396 0 0 1 76.104793 0V767.583176l339.136975-339.136976A38.052396 38.052396 0 0 1 941.530143 482.2603z"  horiz-adv-x="1024" />

    
    <glyph glyph-name="xiayi" unicode="&#59070;" d="M941.551472 339.5538a38.052396 38.052396 0 0 1-53.814099 0L551.554465 3.420961V857.947604a38.052396 38.052396 0 0 1-76.104793 0v-857.53078L136.312696 339.5538a38.052396 38.052396 0 0 1-53.814099-53.8141l402.554298-402.554298a38.052396 38.052396 0 0 1 53.8141 0l402.554298 402.554298a38.052396 38.052396 0 0 1 0.130179 53.8141z"  horiz-adv-x="1024" />

    
    <glyph glyph-name="zhidi" unicode="&#59071;" d="M491.368919 14.85673a38.020421 38.020421 0 0 1 53.76888 0l402.216034 402.216034a38.020421 38.020421 0 0 1-53.76888 53.768879L557.774586 135.031277V857.979579a38.020421 38.020421 0 0 1-76.040842 0v-725.949915L142.881743 470.881665a38.020421 38.020421 0 0 1-53.76888-53.76888zM78.267038-128h867.465924a38.020421 38.020421 0 0 1 0 76.040842H78.267038a38.020421 38.020421 0 0 1 0-76.040842z"  horiz-adv-x="1024" />

    
    <glyph glyph-name="zhiding" unicode="&#59072;" d="M532.59106 753.14327a38.020421 38.020421 0 0 1-53.76888 0l-402.216034-402.216034A38.020421 38.020421 0 1 1 130.294983 297.118335l335.89041 335.850388v-722.948302a38.020421 38.020421 0 0 1 76.040842 0V635.970336l338.852-338.852001a38.020421 38.020421 0 1 1 53.76888 53.76888zM945.732962 896H78.267038a38.020421 38.020421 0 0 1 0-76.040842h867.465924a38.020421 38.020421 0 0 1 0 76.040842z"  horiz-adv-x="1024" />

    
    <glyph glyph-name="jiancha" unicode="&#58930;" d="M512.704-108.8l-11.178667 3.989333c-277.461333 102.336-379.818667 304.64-415.786666 456.533334-39.189333 163.136-13.589333 299.861333-12.8 306.261333l4.010666 19.2 18.389334 5.589333c19.2 6.4 258.261333 117.546667 403.776 185.493334l13.589333 6.4 13.610667-6.4c146.304-67.968 384.597333-178.304 404.586666-185.493334l18.389334-5.610666 3.2-19.2c1.6-10.368 46.357333-252.650667-78.378667-474.922667-8.789333-15.210667-27.968-20.8-43.157333-12.010667-15.210667 8.810667-20.8 27.989333-12.010667 43.178667 95.957333 171.114667 80.768 359.018667 73.578667 414.997333-68.778667 29.568-288.64 131.925333-379.818667 174.293334-90.346667-42.368-310.229333-144.725333-379.797333-174.293334-4.8-39.978667-14.378667-145.536 15.189333-264.661333 47.189333-193.493333 170.325333-330.24 364.608-405.397333 79.146667 30.378667 146.346667 71.957333 201.493333 122.346666a32.597333 32.597333 0 0 0 45.589334-1.6c11.989333-12.8 11.2-33.6-1.6-45.589333-63.978667-59.157333-142.336-106.346667-234.282667-139.925333l-11.2-3.2zM810.389333 143.168l-141.525333 119.146667c27.989333 35.178667 43.989333 79.957333 43.989333 127.936 0 114.346667-92.757333 207.082667-207.104 207.082666S298.666667 504.576 298.666667 390.250667c0-114.346667 92.757333-207.104 207.082666-207.104 43.178667 0 82.346667 12.8 115.946667 35.2l147.114667-123.946667c6.4-4.8 13.610667-7.189333 20.8-7.189333 8.789333 0 18.389333 3.989333 23.978666 11.178666 12.010667 13.589333 9.6 33.578667-3.2 44.8zM362.624 390.250667a142.976 142.976 0 0 0 143.146667 143.125333 142.976 142.976 0 0 0 143.104-143.146667 142.976 142.976 0 0 0-143.125334-143.104c-78.357333 0-143.125333 63.957333-143.125333 143.125334z"  horiz-adv-x="1024" />

    
    <glyph glyph-name="xinzeng" unicode="&#59014;" d="M992 368H32c-16 0-32 12.8-32 32 0 16 12.8 32 32 32h960c16 0 32-12.8 32-32s-12.8-32-32-32zM544 864v-960c0-16-12.8-32-32-32-16 0-32 12.8-32 32V864c0 16 12.8 32 32 32s32-12.8 32-32z"  horiz-adv-x="1024" />

    
    <glyph glyph-name="guanbi1" unicode="&#59060;" d="M1023.941839 853.347024a42.584972 42.584972 0 0 1-72.744596 30.131234L511.975841 444.228465 72.754438 883.449868a42.584972 42.584972 0 0 1-60.262467 0 42.584972 42.584972 0 0 1 0-60.262467L451.713374 383.965998 12.491971-55.255404a42.584972 42.584972 0 1 1 60.262467-60.262468L511.975841 323.703531l439.221402-439.221403a42.584972 42.584972 0 1 1 60.262468 60.262468L572.238308 383.965998l439.221403 439.221403A42.301072 42.301072 0 0 1 1023.941839 853.347024z"  horiz-adv-x="1024" />

    
    <glyph glyph-name="bangzhu" unicode="&#58940;" d="M512 876.088889C241.379556 876.088889 19.911111 654.620444 19.911111 384c0-270.620444 221.468444-492.088889 492.088889-492.088889 270.620444 0 492.088889 221.468444 492.088889 492.088889C1004.088889 654.620444 782.620444 876.088889 512 876.088889z m0-887.466667c-217.486222 0-395.377778 177.891556-395.377778 395.377778 0 217.486222 177.891556 395.377778 395.377778 395.377778 217.486222 0 395.377778-177.891556 395.377778-395.377778 0-217.486222-177.891556-395.377778-395.377778-395.377778zM548.408889 283.534222a43.235556 43.235556 0 0 0-43.349333-43.121778 43.235556 43.235556 0 0 0-43.349334 43.121778M518.542222 668.444444c48.924444 0 88.860444-12.743111 118.897778-39.708444 30.151111-26.168889 45.226667-62.179556 45.226667-107.804444 0-37.432889-9.784889-68.152889-27.875556-92.103112-6.769778-7.509333-28.615111-27.761778-64.682667-59.164444-13.653333-11.207111-23.381333-23.893333-30.151111-37.489778-7.509333-14.961778-11.264-30.72-11.264-48.64H462.051556c0 28.444444 4.551111 53.134222 15.075555 73.386667 9.784889 20.195556 39.139556 51.655111 88.064 95.118222l9.102222 10.467556a82.488889 82.488889 0 0 1 20.252445 53.134222c0 24.746667-7.509333 44.202667-21.048889 58.424889-14.336 14.222222-34.588444 21.048889-60.188445 21.048889-33.166222 0-56.547556-9.784889-70.826666-30.776889-7.68-10.296889-12.970667-23.324444-15.872-38.968889-3.697778-19.512889-19.569778-34.360889-39.651556-34.360889H381.724444c-24.632889 0-44.430222 22.186667-39.708444 46.136889 6.769778 34.019556 21.447111 62.008889 44.714667 84.081778 32.426667 31.459556 76.060444 47.217778 131.811555 47.217777m-13.596444-455.850666c16.611556 0 30.890667-5.233778 42.211555-15.701334a55.296 55.296 0 0 0 16.497778-40.391111c0-16.497778-5.973333-30.776889-17.294222-41.244444a57.912889 57.912889 0 0 0-41.415111-15.701333c-16.497778 0-30.151111 5.973333-41.415111 16.440888-11.264 10.524444-16.497778 24.007111-16.497778 40.448 0 16.497778 5.233778 29.923556 16.497778 40.448 11.320889 10.467556 24.860444 15.701333 41.415111 15.701334"  horiz-adv-x="1024" />

    
    <glyph glyph-name="USB" unicode="&#58991;" d="M825.599887 643.859353H803.7913V823.695625A72.38331 72.38331 0 0 1 731.520754 896H292.462247a72.326928 72.326928 0 0 1-72.304375-72.304375V643.859353H198.383114A72.304375 72.304375 0 0 1 126.078738 571.554978v-501.800482c0-109.042936 88.711559-197.754496 197.754496-197.754496H700.161043c109.042936 0 197.743219 88.711559 197.743219 197.754496v501.800482a72.38331 72.38331 0 0 1-72.304375 72.304375z m-523.552687 1.251682V814.110672h419.888601v-168.999637zM655.168146 38.236915V120.182625H207.968067V561.970025h608.046867V69.777049A115.989208 115.989208 0 0 0 700.161043-46.076843H323.833234a116.079419 116.079419 0 0 0-111.501195 84.313758zM531.883097 770.549879h144.620027v-81.889328H531.883097zM346.859674 770.549879h144.620027v-81.889328H346.859674z"  horiz-adv-x="1024" />

    
    <glyph glyph-name="wangkou" unicode="&#58992;" d="M634.875194 814.083204V687.746656h180.90579v-160.42373h126.30222v-569.984825H81.916796V523.947391H194.522354V687.746656h180.90579V814.083204h259.44705M716.803433 896h-423.257758v-126.290778H112.639886v-160.42373H0v-737.285492h1024V605.864187H897.69778V769.709222H716.803433zM204.820596 401.066476a44.373982 44.373982 0 0 0 44.373982-44.373982v-252.581555A44.373982 44.373982 0 0 0 204.820596 59.736957a44.373982 44.373982 0 0 0-44.373981 44.373982V356.692494A44.373982 44.373982 0 0 0 204.820596 401.066476z m153.604005 0A44.373982 44.373982 0 0 0 402.775698 356.692494v-252.581555a44.373982 44.373982 0 0 0-44.373982-44.373982 44.373982 44.373982 0 0 0-44.373981 44.373982V356.692494a44.373982 44.373982 0 0 0 44.373981 44.373982z m307.196568 0a44.373982 44.373982 0 0 0 44.373981-44.373982v-252.581555a44.373982 44.373982 0 0 0-44.373981-44.373982 44.373982 44.373982 0 0 0-44.373982 44.373982V356.692494a44.373982 44.373982 0 0 0 44.351097 44.373982z m153.604004 0a44.373982 44.373982 0 0 0 44.373982-44.373982v-252.581555a44.373982 44.373982 0 0 0-44.373982-44.373982 44.373982 44.373982 0 0 0-44.373981 44.373982V356.692494a44.373982 44.373982 0 0 0 44.351096 44.373982z m-307.208009 0a44.373982 44.373982 0 0 0 44.373981-44.373982v-252.581555a44.373982 44.373982 0 0 0-44.373981-44.373982 44.362539 44.362539 0 0 0-44.36254 44.373982V356.692494a44.362539 44.362539 0 0 0 44.339655 44.373982z"  horiz-adv-x="1024" />

    
    <glyph glyph-name="baimingdan_" unicode="&#58993;" d="M149.561329-113.361611A46.583982 46.583982 0 0 0 103.550054-73.890649a399.749441 399.749441 0 0 0-4.581656 60.936018 409.451096 409.451096 0 0 0 409.462551 409.46255 46.583982 46.583982 0 0 0 0-93.167964c-174.423624 0-316.317494-141.905324-316.317495-316.30604a307.509262 307.509262 0 0 1 3.539329-46.709978 46.583982 46.583982 0 0 0-38.944071-53.147203 48.977897 48.977897 0 0 0-7.170291-0.538345zM508.442403 303.27123c-163.416197 0-296.364385 132.948188-296.364385 296.364385S345.026206 896 508.442403 896s296.364385-132.959642 296.364385-296.375839-132.948188-296.352931-296.364385-296.352931z m0 499.560806c-112.055839 0-203.207875-91.140582-203.207875-203.196421s91.152036-203.207875 203.207875-203.207875S711.650278 487.579776 711.650278 599.635615s-91.16349 203.196421-203.207875 203.196421zM690.563208-128c-129.271409 0-234.443311 105.160447-234.443311 234.431857s105.171902 234.443311 234.443311 234.443311 234.431857-105.160447 234.431857-234.443311S819.834618-128 690.563208-128z m0 375.695749a141.286801 141.286801 0 1 1 141.286801-141.218076 141.447159 141.447159 0 0 1-141.286801 141.286801zM657.208756 33.503356a31.05217 31.05217 0 0 0-18.326622 56.125279l118.286891 86.215302a31.05217 31.05217 0 1 0 36.584519-50.192035l-118.263982-86.18094a31.143803 31.143803 0 0 0-18.326622-5.944698zM652.638555 31.109441a31.017808 31.017808 0 0 0-24.958568 12.599552l-46.961969 63.341387a31.05217 31.05217 0 1 0 49.859866 37.019777l47.019239-63.352842a31.063624 31.063624 0 0 0-24.912751-49.562058z"  horiz-adv-x="1024" />

    
    <glyph glyph-name="suoxiao" unicode="&#58988;" d="M0 896h9504.96v-1024H0z"  horiz-adv-x="9504" />

    
    <glyph glyph-name="liebiao" unicode="&#58989;" d="M2.282343 896h1019.435314v-109.827055H2.282343zM2.282343 441.773607h1019.435314v-109.827055H2.282343zM2.282343-18.172945h1019.435314v-109.827055H2.282343z"  horiz-adv-x="1024" />

    
    <glyph glyph-name="guanbi" unicode="&#58990;" d="M0.003194 823.726364L72.268313 895.993613l951.728493-951.727429-72.266184-72.266184zM0.003194-55.727429L951.730622 896l72.266184-72.266184L72.268313-127.993613z"  horiz-adv-x="1024" />

    
    <glyph glyph-name="yonghuyingyongtaishi-" unicode="&#58902;" d="M391.7 351.8h-290c-19.7 0-35.7 16-35.7 35.7v290c0 19.7 16 35.7 35.7 35.7h290c19.7 0 35.7-16 35.7-35.7v-290c0.1-19.7-16-35.7-35.7-35.7zM101.8 681.5c-2.2 0-4-1.8-4-4v-290c0-2.2 1.8-4 4-4h290c2.2 0 4 1.8 4 4v290c0 2.2-1.8 4-4 4h-290zM391.7-62.7h-290C82-62.7 66-46.7 66-27V263c0 19.7 16 35.7 35.7 35.7h290c19.7 0 35.7-16 35.7-35.7v-290c0.1-19.7-16-35.7-35.7-35.7zM101.8 266.9c-2.2 0-4-1.8-4-4v-290c0-2.2 1.8-4 4-4h290c2.2 0 4 1.8 4 4V263c0 2.2-1.8 4-4 4h-290zM799.8-62.7h-290c-19.7 0-35.7 16-35.7 35.7V263c0 19.7 16 35.7 35.7 35.7h290c19.7 0 35.7-16 35.7-35.7v-290c0.1-19.7-16-35.7-35.7-35.7zM509.9 266.9c-2.2 0-4-1.8-4-4v-290c0-2.2 1.8-4 4-4h290c2.2 0 4 1.8 4 4V263c0 2.2-1.8 4-4 4h-290zM682.3 351.7c-9.5 0-18.5 3.7-25.3 10.5l-205 205c-6.7 6.7-10.5 15.7-10.5 25.3 0 9.5 3.7 18.5 10.5 25.3l205 205c6.7 6.7 15.7 10.5 25.3 10.5 9.5 0 18.5-3.7 25.3-10.5l205-205c6.7-6.7 10.5-15.7 10.5-25.3 0-9.5-3.7-18.5-10.5-25.3l-205-205c-6.8-6.8-15.7-10.5-25.3-10.5z m0 449.8c-0.8 0-1.8-0.2-2.8-1.2l-205-205c-1-1-1.2-2.1-1.2-2.8s0.2-1.8 1.2-2.8l205-205c1-1 2.1-1.2 2.8-1.2s1.8 0.2 2.8 1.2l205 205c1 1 1.2 2.1 1.2 2.8s-0.2 1.8-1.2 2.8l-205 205c-0.9 1-2 1.2-2.8 1.2z"  horiz-adv-x="1024" />

    
    <glyph glyph-name="shenji" unicode="&#58981;" d="M533.719758-128H90.707559A18.28551 18.28551 0 0 0 72.479191-109.771632V877.771632A18.28551 18.28551 0 0 0 90.707559 896h749.511635a18.28551 18.28551 0 0 0 18.228368-18.228368v-555.193804a18.28551 18.28551 0 0 0-18.228368-18.228368 18.28551 18.28551 0 0 0-18.228368 18.228368V859.531836H108.935927v-951.086528h424.795259a18.28551 18.28551 0 0 0 18.228368-18.228368A18.28551 18.28551 0 0 0 533.719758-128zM678.643854 657.53409h-436.566556a18.28551 18.28551 0 0 0-18.239796 18.182654 18.28551 18.28551 0 0 0 18.228368 18.228368h436.566556a18.28551 18.28551 0 0 0 18.228368-18.228368 18.28551 18.28551 0 0 0-18.21694-18.182654zM461.834846 438.53082h-219.768976a18.28551 18.28551 0 0 0-18.228368 18.228368 18.28551 18.28551 0 0 0 18.228368 18.228368h219.768976a18.28551 18.28551 0 0 0 18.228368-18.228368 18.28551 18.28551 0 0 0-18.228368-18.228368zM649.88989-30.195377c-38.011004 0-77.393422 7.999911-117.038694 23.736878-31.313936 12.434147-62.856441 29.713954-93.804668 51.427997-52.456557 36.742447-84.856196 73.142041-86.204752 74.707738a18.28551 18.28551 0 0 0 0 24.125445c1.348556 1.531411 33.759623 37.965291 86.204752 74.707737 30.936798 21.714043 62.490731 38.959565 93.804668 51.427998 39.645272 15.748396 79.027689 23.736878 117.038694 23.736878s77.393422-7.999911 117.038693-23.736878c31.313936-12.434147 62.856441-29.713954 93.804668-51.427998 52.456557-36.742447 84.856196-73.142041 86.204752-74.707737a18.21694 18.21694 0 0 0 0-24.125445c-1.348556-1.531411-33.759623-37.965291-86.204752-74.707738-30.936798-21.714043-62.490731-38.959565-93.804668-51.427997-39.633843-15.748396-79.004833-23.736878-117.038693-23.736878zM391.801342 131.722816a533.11405 533.11405 0 0 1 68.902088-57.416502c44.479504-31.039654 113.404449-68.033526 189.197888-68.033527 120.455798 0 224.248926 91.918974 258.111405 125.472885a533.056908 533.056908 0 0 1-68.902088 57.416503c-44.479504 31.039654-113.404449 68.033526-189.197888 68.033526-120.455798-0.011428-224.248926-91.930403-258.111405-125.472885zM652.712715 131.722816m-73.644892 0a73.644892 73.644892 0 1 1 147.289785 0 73.644892 73.644892 0 1 1-147.289785 0ZM652.712715 39.849555a91.976116 91.976116 0 0 0-91.87326 91.873261 91.976116 91.976116 0 0 0 91.87326 91.87326 91.976116 91.976116 0 0 0 91.873261-91.87326 91.976116 91.976116 0 0 0-91.873261-91.873261z m0 147.289785a55.485095 55.485095 0 0 1-55.393667-55.416524 55.485095 55.485095 0 0 1 55.416524-55.416525 55.485095 55.485095 0 0 1 55.439381 55.416525 55.485095 55.485095 0 0 1-55.462238 55.416524z"  horiz-adv-x="1024" />

    
    <glyph glyph-name="zhinenghua" unicode="&#58987;" d="M882.211417-128H427.914274l-2.697143 14.4c-7.462857 39.828571-17.92 95.474286-22.8 121.142857-13.325714-0.137143-28.571429-0.422857-44.411428-0.72-43.211429-0.811429-92.068571-1.737143-125.165714-0.068571-11.794286-1.725714-22.274286-0.64-31.188572 3.234285l-0.594286 0.274286c-36.8 17.657143-30.148571 71.44-24.24 98.125714-17.645714 10.788571-28.434286 25.6-28.434285 40a34.651429 34.651429 0 0 0 10.217143 24.502858c-8.285714 7.211429-13.245714 16.708571-13.245715 27.245714a37.611429 37.611429 0 0 0 2.56 14.217143l-1.302857 5.84c-2.857143 12.834286-9.474286 42.605714-13.588571 57.725714-19.428571 1.451429-34.468571 4.102857-45.714286 8-15.405714 5.382857-24.777143 13.782857-27.862857 24.971429-5.714286 20.72 13.268571 36.777143 20.571428 42.045714 6.228571 6.605714 13.051429 13.074286 20.251429 19.885714 16.971429 16.068571 34.514286 32.685714 42.068571 49.782857 9.611429 21.645714 5.908571 43.954286 1.611429 69.794286-2.56 15.394286-5.2 31.302857-4.937143 47.92 0.525714 38.491429 12.674286 83.76 23.874286 113.28 20.114286 52.891429 55.382857 98.8 104.845714 136.48a414.08 414.08 0 0 0 129.691429 77.382857A451.714286 451.714286 0 0 0 556.519989 895.931429c108.868571 0 211.314286-37.451429 288.468571-105.462858 37.714286-33.257143 67.428571-72 88.125714-115.28a325.714286 325.714286 0 0 0 32.502857-141.954285 322.674286 322.674286 0 0 0-2.4-38.857143c-1.92-97.451429-37.177143-196.651429-104.822857-294.994286 14.468571-107.828571 40.525714-301.874286 41.291429-307.062857a17.657143 17.657143 0 0 1-17.44 14.96l1.142857-35.268571h-1.142857zM457.239989-92.651429h404.777142l-3.92 29.074286c-3.965714 29.451429-9.245714 68.731429-14.525714 108.011429l-21.097143 157.108571-0.914285 6.857143 3.954285 5.645714c66.285714 94.651429 100.777143 189.52 102.4 281.977143v0.937143l0.114286 0.937143a283.611429 283.611429 0 0 1 2.285714 35.428571c0 180.571429-167.68 327.382857-373.794285 327.382857-100.64 0-195.062857-34.594286-265.862858-97.394285l-1.04-0.857143c-44.4-33.691429-75.931429-74.502857-93.714285-121.291429-10.125714-26.685714-21.12-67.314286-21.577143-101.257143-0.205714-13.462857 2.057143-27.142857 4.468571-41.622857 4.571429-27.428571 9.725714-58.582857-4.16-89.862857-10.4-23.565714-31.485714-43.52-50.08-61.131428-7.28-6.857143-14.148571-13.394286-19.931428-19.645715l-1.44-1.554285-1.76-1.142858a35.931429 35.931429 0 0 1-5.257143-4.491428c5.714286-2.491429 19.428571-6.422857 50.217143-7.874286 4.32-0.194286 12.342857-2.137143 16.811428-12.971428 0.765714-1.851429 1.554286-4.148571 2.468572-7.222858 1.394286-4.662857 3.074286-11.017143 5.131428-19.428571 3.611429-14.777143 7.497143-32.251429 10.285715-45.005714 1.142857-5.165714 2.091429-9.394286 2.708571-12.045715l1.817143-7.874285-4.765714-6.525715-0.114286-0.148571a6.274286 6.274286 0 0 1 0-0.628571c1.291429-2.045714 7.908571-6.308571 18.788571-6.308572h12.285715l2.365714-35.154286c-18.285714-2.468571-27.611429-7.908571-30.034286-10.72 1.805714-2.96 8-9.474286 20.16-14.514285l14.857143-6.171429-4.765714-15.36c-7.542857-24.514286-11.2-63.394286 1.714285-70.194286 2.971429-1.142857 7.417143-1.302857 12.88-0.354285l1.965715 0.342857 1.988571-0.102857c31.817143-1.737143 81.04-0.8 124.468572 0 22.171429 0.422857 43.108571 0.811429 59.634285 0.811428 4.262857-0.068571 14.857143-1.691429 17.634286-15.748571 0.194286-1.017143 0.491429-2.491429 0.845714-4.388572 0.708571-3.714286 1.725714-9.028571 2.925715-15.405714 2.411429-12.72 5.6-29.714286 8.8-46.651428 3.748571-20.262857 7.531429-40.468571 10-53.462858zM144.611417 277.302857z m571.668572 58.8a57.394286 57.394286 0 0 0-57.337143 57.337143v1.942857l-92.022857 53.131429a134.857143 134.857143 0 0 0-88.765715-33.051429 136.845714 136.845714 0 0 0-136.685714 136.685714 136.845714 136.845714 0 0 0 136.685714 136.685715 136.708571 136.708571 0 0 0 101.6-45.485715l39.645715 22.857143c-0.102857 1.68-0.148571 3.337143-0.148572 4.948572a97.142857 97.142857 0 0 0 97.005714 97.017143 97.142857 97.142857 0 0 0 97.017143-97.017143 97.142857 97.142857 0 0 0-97.017143-97.005715 97.234286 97.234286 0 0 0-77.714285 39.405715l-31.028572-17.92a132.571429 132.571429 0 0 0 7.405715-43.508572 136 136 0 0 0-13.714286-59.702857l86-49.645714a56.834286 56.834286 0 0 0 29.12 8 57.394286 57.394286 0 0 0 57.337143-57.337143 57.394286 57.394286 0 0 0-57.394286-57.382857z m-18.617143 69.828572l-2.285715-7.691429a25.485714 25.485714 0 0 1-1.142857-4.811429 22.045714 22.045714 0 0 1 22.022857-22.022857 22.045714 22.045714 0 0 1 22.022858 22.022857 22.045714 22.045714 0 0 1-22.022858 22.022858 21.874286 21.874286 0 0 1-15.417142-6.377143z m-219.428572 247.6a101.497143 101.497143 0 0 1-101.382857-101.382858 101.497143 101.497143 0 0 1 101.382857-101.382857 100.354286 100.354286 0 0 1 73.36 31.782857l6.857143 7.177143 4.068572 6.057143a100.845714 100.845714 0 0 1 17.142857 56.365714 100.228571 100.228571 0 0 1-10.205715 43.428572l-4.182857 8.754286-4.171428 5.92a101.52 101.52 0 0 1-82.914286 43.234285z m178.902857-1.005715l3.531429-7.485714a61.12 61.12 0 0 1 55.645714-35.554286 61.714286 61.714286 0 0 1 61.714286 61.714286 61.771429 61.771429 0 0 1-61.714286 61.714286 61.714286 61.714286 0 0 1-61.714285-61.714286 61.497143 61.497143 0 0 1 1.142857-11.211429z"  horiz-adv-x="1024" />

    
    <glyph glyph-name="xitongpeizhi" unicode="&#58938;" d="M965.182803 768.390027c-162.03483 0-274.624497 32.420631-340.490648 59.614332-37.955028 15.658015-64.909588 31.338805-80.932007 41.747114C515.826249 887.891995 513.514557 893.517493 512.751585 895.385067a1.002113 1.002113 0 0 1-0.797136 0.603545 0.888236 0.888236 0 0 1-0.717421-0.478281c-1.013501-2.459732-4.703098-8.506572-31.065502-25.633593-16.045195-10.396922-43.147795-26.111875-81.182536-41.792665-66.048353-27.250639-178.660795-59.728209-340.149018-59.728209a0.854074 0.854074 0 0 1-0.751584-0.444118l77.436-521.895866v-0.409955c12.526412-104.994106 110.460177-199.113009 190.321745-259.638353 93.128178-70.489535 184.946776-113.580392 185.732524-113.876471a0.854074 0.854074 0 0 1 0.683259 0c0.865461 0.375792 92.570183 42.475924 187.611485 113.956184 80.362625 60.422855 178.307778 154.43927 188.613599 259.239786q0 0.353017 0.091101 0.706034l77.333511 521.87309a0.899624 0.899624 0 0 1-0.728809 0.523832z m-97.603523-374.596651l15.612464-19.450101h-18.504927l-16.796779-113.432352q0-0.318854-0.079713-0.637708c-9.201219-93.469807-96.55586-177.362603-168.218323-231.237562-84.769645-63.770824-166.567114-101.350059-167.341474-101.646138a0.762972 0.762972 0 0 0-0.603545 0c-0.706034 0.307466-82.594604 38.718-165.656102 101.611975-71.263895 53.909121-158.584373 137.904406-169.767043 231.556416v0.364404L107.134984 726.41516a0.762972 0.762972 0 0 0 0.671871 0.398567c144.03096 0 244.492783 28.970174 303.389693 53.271413 33.923801 13.995418 58.077 28.002224 72.391273 37.294545 23.515491 15.270835 26.795134 20.668579 27.706145 22.855007a0.797135 0.797135 0 0 0 0.637708 0.432731 0.888236 0.888236 0 0 0 0.72881-0.546607c0.683259-1.673984 2.755811-6.695936 27.592268-22.866396 14.245946-9.280932 38.33082-23.264963 72.186295-37.237605 58.794422-24.255688 159.210694-53.168924 303.742711-53.180312a0.797135 0.797135 0 0 0 0.671871-0.455506zM549.100954 209.860101h-83.721981l-18.220235 18.220235v33.331643c0 6.900914-1.059051 10.761326-1.822024 12.674451-1.901737-0.819911-5.386357-2.835524-10.305821-7.766375l-23.458553-23.504103h-25.79302l-59.215765 59.215764v25.793021l23.469941 23.469941c4.930851 4.930851 6.957852 8.415471 7.777763 10.328596-1.924512 0.762972-5.819088 1.799248-12.77694 1.799248H311.805164l-18.220235 18.220235v83.767532l18.220235 18.220235h33.240542c6.946465 0 10.829652 1.024888 12.765553 1.787861-0.831298 1.913125-2.858299 5.386357-7.766376 10.248882l-23.481328 23.526879v25.804408l59.215765 59.215765h25.758858l23.46994-23.469941c4.919464-4.930851 8.404084-6.957852 10.305821-7.78915 0.77436 1.924512 1.810636 5.8077 1.822023 12.754165v33.217766l18.220236 18.220235h83.721981l18.220235-18.220235v-33.172216c0-6.946465 1.013501-10.84104 1.776473-12.77694 1.913125 0.819911 5.386357 2.846912 10.317208 7.766375l23.469941 23.469941h25.758858l59.28409-59.215765v-25.781633l-23.356064-23.504103c-4.908076-4.908076-6.935077-8.381308-7.754987-10.248883 1.9359-0.762972 5.841863-1.799248 12.811102-1.799248h33.194992l18.220235-18.220235v-83.767532l-18.220235-18.220235h-33.25193c-7.026178 0-10.932141-1.047664-12.856653-1.810636 0.808523-1.901737 2.824136-5.397745 7.754987-10.339984l23.481329-23.435777v-25.781633l-59.215765-59.215765h-25.804408l-23.469941 23.515491c-4.919464 4.908076-8.404084 6.923689-10.317208 7.7436-0.762972-1.924512-1.776473-5.819088-1.753698-12.754165v-33.29748z m-65.501746 36.440471h47.281511v15.031694c-0.068326 32.432019 14.90643 43.523587 23.834345 47.23596s27.398679 6.536509 50.447277-16.466538l10.613287-10.624675 33.456907 33.456908-10.613287 10.590511c-22.968884 23.048598-20.167523 41.473811-16.466538 50.413114s14.803941 23.914059 47.349837 23.914059h14.974756v47.338449h-14.929206c-32.545895 0-43.626076 14.997531-47.327061 23.914058s-6.479571 27.330353 16.512088 50.356176l10.624675 10.624675-33.502458 33.456907-10.601899-10.6019c-23.014435-23.014435-41.462423-20.224461-50.401726-16.512088s-23.572429 14.530638-23.914059 46.154134v16.147683H483.644759v-15.065857c-0.079714-32.534508-15.088632-43.55775-24.027936-47.247348s-27.330353-6.434021-50.322012 16.569027l-10.579124 10.579124-33.479682-33.456907 10.601899-10.624675c22.991659-22.991659 20.213074-41.416872 16.512088-50.356175s-14.803941-23.914059-47.292898-23.914059h-15.031694v-47.327061h15.020306c32.511732 0 43.580525-15.008919 47.292899-23.914059s6.490959-27.330353-16.523476-50.390338l-10.590512-10.590512 33.434132-33.456907 10.579124 10.601899c23.003047 22.923334 41.405485 20.167523 50.3334 16.477925s23.914059-14.71284 24.016548-47.156246v-15.156958z m83.721981 14.803941l-0.865461-5.511621a17.867218 17.867218 0 0 1 0.865461 5.46607z m-35.529458 5.693823a17.878606 17.878606 0 0 1-0.865462-5.46607z m-24.528992 65.171505a91.511132 91.511132 0 1 0 91.511132 91.511131 91.613621 91.613621 0 0 0-91.52252-91.511131z m0 146.581793a55.070661 55.070661 0 1 1 55.070661-55.070662 55.138987 55.138987 0 0 1-55.082049 55.070662z"  horiz-adv-x="1024" />

    
    <glyph glyph-name="wangluoguanli" unicode="&#58949;" d="M1126.19894 896H51.250594A51.250594 51.250594 0 0 1 0 844.749406v-767.852161a51.250594 51.250594 0 0 1 51.250594-51.250594h511.875158v-102.396057H409.544807v-51.250594h358.359919v51.250594H614.323781v102.461763H1126.19894a51.250594 51.250594 0 0 1 51.250594 51.250594V844.749406a51.250594 51.250594 0 0 1-51.250594 51.250594z m0-819.089614H51.250594V230.47819h1074.948346z m0 204.765833H51.250594V844.749406h1074.948346zM614.323781 179.280161h-51.250593v-51.250593h51.250593v51.250593zM311.196232 684.282484h42.051769v-307.372149h-42.051769zM483.634768 705.54491h42.051769v-328.634575h-42.051769zM651.881267 749.331314h42.051769v-372.420979h-42.051769zM820.114626 662.599541h42.051769v-285.689206h-42.051769z"  horiz-adv-x="1177" />

    
    <glyph glyph-name="gerenzhongxin1" unicode="&#59059;" d="M874.067141 745.866899a511.897335 511.897335 0 0 1-742.184407-704.731063l-0.066728-0.209716 9.31329-9.732722c1.582401-1.658662 3.174335-3.317324 4.76627-4.95692q1.76352-1.792117 3.527039-3.565169l0.695876-0.714941a512.326299 512.326299 0 0 1 70.969751-59.282859h0.085793q2.411732-1.668194 4.852062-3.317323l0.409899-0.276444c1.515674-1.029514 3.04088-2.039963 4.575619-3.050412l0.762603-0.495692q2.135289-1.401283 4.289643-2.783502l1.115307-0.705408 3.975068-2.51659 1.515674-0.953254 3.64143-2.240146 1.906508-1.153437 3.288725-1.973236 2.354537-1.372686 2.916957-1.696792c0.953254-0.543355 1.906508-1.067644 2.812099-1.601466l2.516591-1.420348c1.096242-0.619615 2.202016-1.220165 3.298258-1.830248l2.087626-1.143904c1.267828-0.695875 2.545188-1.372686 3.813016-2.059029l1.630064-0.867461q2.173419-1.143905 4.365902-2.268744l1.143905-0.60055q2.487993-1.27736 5.004583-2.526123l0.56242-0.285976q14.127223-7.025481 28.750137-13.212099l0.190651-0.085793c0.953254-0.419432 1.992301-0.819798 2.983684-1.229697s1.963703-0.829331 2.955087-1.229698l3.936939-1.582401 2.011366-0.800733 4.451695-1.72539 1.515674-0.581485 4.766269-1.773052 1.220165-0.457562c1.668194-0.60055 3.326856-1.2011 4.995051-1.782585l1.029514-0.371769c1.706324-0.60055 3.422181-1.182035 5.147571-1.773052l0.886526-0.295509c1.753987-0.591017 3.517507-1.172502 5.271494-1.744454l0.791201-0.257379 5.347754-1.687259 0.743538-0.238314 5.404949-1.630064 0.714941-0.219248 5.424014-1.563336 0.714941-0.200184c1.820715-0.514757 3.631897-1.010449 5.452612-1.496608l0.71494-0.200184q2.716774-0.734005 5.452613-1.420348l0.734005-0.190651q2.716774-0.695875 5.44308-1.35362l0.772135-0.190651c1.811182-0.428964 3.612832-0.857928 5.424015-1.267828l0.819798-0.19065q2.688176-0.610082 5.395417-1.191568l0.876994-0.190651c1.782585-0.381302 3.555637-0.753071 5.347754-1.115307l0.953254-0.19065c1.76352-0.352704 3.527039-0.705408 5.290559-1.039047l1.029514-0.190651c1.744455-0.324106 3.479377-0.648213 5.223831-0.953254l1.134373-0.200183c1.715857-0.295509 3.431714-0.591017 5.147571-0.867461l1.23923-0.200183c1.687259-0.276444 3.364986-0.533822 5.052245-0.791201l1.382218-0.209716 4.928323-0.705408 1.525206-0.200183c1.601467-0.219248 3.212466-0.438497 4.823465-0.63868l1.649129-0.200184c1.563336-0.190651 3.136205-0.381302 4.709074-0.552887l1.811183-0.200183 4.556553-0.476627 2.011366-0.200183c1.468011-0.133456 2.926489-0.276444 4.3945-0.400367l2.202017-0.190651 4.213382-0.333639 2.449862-0.171585 4.003667-0.276444 2.688176-0.152521 3.813015-0.209716 2.983685-0.133455 3.517507-0.142988c1.115307-0.047663 2.240147-0.07626 3.364986-0.114391l3.145738-0.095325 4.089459-0.07626H521.086761l4.089459 0.07626 3.136206 0.095325c1.12484 0 2.259212 0.066728 3.384051 0.114391l3.517507 0.142988 2.983684 0.133455 3.813016 0.219249 2.688176 0.152521c1.344088 0.07626 2.678643 0.171586 4.013199 0.266911l2.44033 0.171585 4.222914 0.343172 2.202017 0.181118c1.468011 0.123923 2.926489 0.266911 4.3945 0.409899l2.001833 0.190651q2.287809 0.228781 4.575619 0.486159l1.80165 0.190651 4.766269 0.56242 1.639597 0.200183 4.84253 0.629148 1.496608 0.209716 4.95692 0.705408 1.353621 0.200183q2.545188 0.381302 5.090376 0.800733l1.191567 0.190651q2.602383 0.428964 5.195234 0.886526l1.067644 0.181118q2.659578 0.467094 5.300092 0.953254l0.953253 0.171586 5.376352 1.058112 0.857929 0.171585q2.726306 0.543355 5.44308 1.134372l0.762603 0.162054 5.51934 1.220165 0.67681 0.162053c1.858845 0.419432 3.708158 0.857928 5.567003 1.305958l0.600549 0.142988q2.859762 0.686343 5.624198 1.401283l0.533823 0.133455 5.662328 1.477544 0.476627 0.133455c1.906508 0.514757 3.813016 1.029514 5.719523 1.563337l0.438497 0.133455q2.859762 0.800733 5.719523 1.639597l0.409899 0.123923c1.906508 0.56242 3.813016 1.143905 5.719523 1.72539l0.390834 0.123923q2.859762 0.886526 5.719524 1.801649l0.400366 0.133456c1.906508 0.610082 3.813016 1.229698 5.671861 1.906508l0.448029 0.15252 5.595601 1.906508 0.533822 0.190651 5.48121 1.963703 0.734005 0.276443c1.753987 0.648213 3.517507 1.296425 5.271494 1.963703l1.305958 0.505225c1.553804 0.591017 3.11714 1.191567 4.670944 1.80165 3.984601 1.572869 7.969202 3.193401 11.925206 4.871127q12.010999 5.071311 23.697891 10.743171h0.047663c1.906508 0.953254 3.75582 1.830247 5.624198 2.764437l0.295509 0.15252q2.659578 1.334555 5.300091 2.688176l0.610083 0.314574q2.47846 1.27736 4.91879 2.573786l0.953254 0.505224q2.268744 1.2011 4.518423 2.430797l1.296425 0.705408 4.098992 2.278277 1.639597 0.953254c1.229698 0.695875 2.459395 1.391751 3.689092 2.106691l2.001833 1.16297 3.260129 1.906508 2.354537 1.410815c0.953254 0.56242 1.906508 1.134372 2.859761 1.715857l2.716774 1.668195 2.411732 1.496608 3.07901 1.906508 1.982768 1.267828 3.422182 2.221081 1.582401 1.039047 3.813016 2.507058 1.153437 0.781668c1.382218 0.953254 2.754904 1.906508 4.127589 2.859761l0.734006 0.514758c1.496609 1.039047 2.983685 2.078093 4.470761 3.136205l0.324106 0.219248A513.984961 513.984961 0 0 1 869.567783 17.399815l0.266911 0.257378 2.020898 2.097159 2.211549 2.173419 0.276444 0.285976 0.7912 0.800733q4.489826 4.518423 8.846196 9.12264l9.208433 9.694592-0.066728 0.209715a511.477903 511.477903 0 0 1-19.065077 703.825472zM667.725806-21.10211l-2.011366-0.772135c-1.296425-0.495692-2.602383-0.953254-3.898808-1.448946l-1.182035-0.44803c-1.420348-0.514757-2.859762-1.019982-4.251512-1.515673l-0.848396-0.305041c-1.468011-0.514757-2.945554-1.019982-4.413566-1.515674l-0.71494-0.247846q-2.249679-0.762603-4.508891-1.487076l-0.629148-0.209716-4.575618-1.439413-0.591018-0.190651-4.604216-1.391751-0.581485-0.171586L630.301058-33.627866l-0.571952-0.162053c-1.544271-0.438497-3.088543-0.857928-4.632814-1.27736l-0.60055-0.162053q-2.306874-0.610082-4.623281-1.2011l-0.619615-0.162053q-2.306874-0.591017-4.604216-1.143905l-0.667278-0.162053c-1.525206-0.371769-3.04088-0.724473-4.566086-1.077177l-0.734006-0.162053-4.537488-1.010449-0.772136-0.162053c-1.496609-0.324106-2.993217-0.629148-4.489826-0.953254l-0.848395-0.171586c-1.487076-0.295509-2.96462-0.591017-4.442164-0.867461l-0.953253-0.171586-4.375436-0.800733-1.019981-0.181118-4.299175-0.724473-1.115307-0.181118c-1.410816-0.228781-2.812099-0.448029-4.222915-0.657746l-1.210633-0.181118-4.146654-0.60055-1.325023-0.171585c-1.344088-0.190651-2.697708-0.362236-4.041796-0.533823l-1.468011-0.181118-3.917874-0.457562-1.610999-0.181118-3.813015-0.400367-1.753987-0.162053c-1.220165-0.123923-2.449862-0.238313-3.670028-0.343171l-1.906508-0.162053-3.536572-0.285976-2.097158-0.142989-3.364986-0.228781-2.316407-0.133455c-1.058112-0.057195-2.116224-0.123923-3.183868-0.171586l-2.535656-0.11439-2.964619-0.133456-2.907424-0.085793-2.621449-0.085792-3.498441-0.066728h-2.059029L512.097577-49.833182h-7.692759l-3.422181 0.066728-2.659579 0.085793-2.859761 0.085793-2.983685 0.133455-2.51659 0.104858-3.212466 0.181118-2.278276 0.133456-3.412649 0.228781-2.049496 0.142988-3.584235 0.285976-1.849312 0.152521-3.746288 0.352704-1.677727 0.162053c-1.296425 0.123923-2.592851 0.266911-3.889276 0.409899l-1.515673 0.162053-4.013199 0.476627-1.372686 0.162053c-1.382218 0.171586-2.754904 0.352704-4.137122 0.543355l-1.220165 0.162053-4.251512 0.610083-1.105774 0.162053-4.327773 0.67681-1.000917 0.162053-4.413565 0.753071-0.905591 0.15252-4.489826 0.819799-0.800733 0.15252c-1.525206 0.285976-3.04088 0.581485-4.566086 0.886527l-0.714941 0.142988c-1.544271 0.314574-3.088543 0.63868-4.623281 0.953254l-0.63868 0.133455c-1.563336 0.333639-3.11714 0.67681-4.680477 1.039047l-0.571952 0.123923q-2.36407 0.543355-4.718607 1.115307l-0.514757 0.123923q-2.392667 0.571952-4.766269 1.172502l-0.467095 0.123923c-1.591934 0.409899-3.183868 0.819798-4.766269 1.248763l-0.428964 0.11439c-1.601467 0.428964-3.202933 0.876994-4.76627 1.325023l-0.390834 0.104858c-1.610999 0.457562-3.212466 0.953254-4.813932 1.391751l-0.381302 0.11439c-1.601467 0.476627-3.202933 0.953254-4.766269 1.448946l-0.362236 0.11439q-2.4022 0.743538-4.76627 1.515674l-0.362236 0.123923c-1.591934 0.514757-3.193401 1.039047-4.76627 1.572869l-0.371769 0.123923q-2.383135 0.800733-4.766269 1.639597l-0.390834 0.133455c-1.563336 0.552887-3.136205 1.115307-4.699542 1.68726l-0.476627 0.171585-4.604216 1.715857-0.552887 0.219249c-1.506141 0.571952-3.012282 1.143905-4.508891 1.734922l-0.686343 0.276443c-1.458478 0.581485-2.907424 1.153437-4.35637 1.744455l-0.953254 0.409899-4.137122 1.753987-3.689093 1.591934-1.515673 0.657746a434.597977 434.597977 0 0 0-115.887075 74.773234 317.509803 317.509803 0 0 0 580.455354 0.695875 434.68377 434.68377 0 0 0-116.497157-75.402382q-7.626031-3.374519-15.43318-6.424931zM412.549274 370.465987a141.529604 141.529604 0 1 0 100.091658-41.457011 140.624013 140.624013 0 0 0-100.091658 41.457011z m499.228591-155.380382A431.347382 431.347382 0 0 0 859.186848 123.659025a397.09697 397.09697 0 0 1-204.949585 178.859026q7.101741 6.005499 13.774519 12.659211a219.68689 219.68689 0 1 1-310.684505 0c4.432631-4.442163 9.036847-8.646013 13.774518-12.659211a396.677538 396.677538 0 0 1-205.473874-179.650227 433.787711 433.787711 0 1 0 746.149944 429.84124 435.370113 435.370113 0 0 0 0-337.623459z"  horiz-adv-x="1024" />

    
    <glyph glyph-name="xiugai" unicode="&#59046;" d="M860.875532-50.243059H95.723396V806.382659h343.736676V884.1396H17.966455v-1012.1396h920.666018V357.113821h-77.756941v-407.35688zM259.313878 204.259248L951.046814 895.992184l54.981846-54.981846-691.732936-691.732936z"  horiz-adv-x="1024" />

    
    <glyph glyph-name="shanchu2" unicode="&#59047;" d="M772.904215 707.678161V896H251.095785v-188.321839H0v-82.390805h125.547893v-753.287356h772.904214V625.287356h125.547893v82.390805H772.904215z m43.157088-753.287356H207.938697V625.287356h608.122606zM333.48659 813.609195h357.02682v-105.931034H333.48659zM564.965517 582.130268h82.380996v-584.582375H564.965517zM376.643678 582.130268h82.390805v-584.582375h-82.390805z"  horiz-adv-x="1024" />

    
    <glyph glyph-name="sousuo" unicode="&#59065;" d="M1014.764623-58.763766L736.608201 219.392656a413.049818 413.049818 0 0 1 93.035151 261.790716C829.643352 710.232581 643.916317 896 414.816628 896S0 710.232581 0 481.183372s185.767419-414.826724 414.816628-414.826724A413.140683 413.140683 0 0 1 679.777505 162.016773l277.873733-277.863636a40.384222 40.384222 0 1 1 57.113385 57.103289zM414.816628 147.125091A334.179433 334.179433 0 0 0 284.819819 788.981813a334.179433 334.179433 0 0 0 260.003714-615.637266 331.907821 331.907821 0 0 0-130.006905-26.219456z"  horiz-adv-x="1027" />

    


  </font>
</defs>
</svg>
